<?xml version="1.0" standalone="no"?>
<!DOCTYPE svg PUBLIC "-//W3C//DTD SVG 20010904//EN"
 "http://www.w3.org/TR/2001/REC-SVG-20010904/DTD/svg10.dtd">
<svg version="1.0" xmlns="http://www.w3.org/2000/svg"
 width="1024.000000pt" height="1024.000000pt" viewBox="0 0 1024.000000 1024.000000"
 preserveAspectRatio="xMidYMid meet">
<metadata>
Created by potrace 1.14, written by Peter Selinger 2001-2017
</metadata>
<g transform="translate(0.000000,1024.000000) scale(0.100000,-0.100000)"
fill="#000000" stroke="none">
<path d="M2345 10212 c-95 -54 -450 -259 -540 -312 -49 -28 -108 -62 -130 -75
-22 -12 -130 -74 -240 -137 -419 -242 -781 -451 -815 -470 -64 -37 -87 -57
-104 -92 -15 -31 -16 -294 -16 -3130 0 -2618 2 -3102 14 -3130 15 -35 40 -57
133 -110 32 -18 236 -136 453 -261 217 -125 415 -239 440 -253 25 -14 62 -36
82 -49 21 -12 40 -23 43 -23 3 0 24 -11 46 -26 22 -14 57 -34 77 -46 51 -28
415 -239 480 -277 29 -17 57 -31 62 -31 6 0 10 -4 10 -10 0 -5 4 -10 9 -10 5
0 139 -75 298 -166 158 -92 302 -174 318 -184 17 -9 144 -83 284 -164 139 -80
255 -146 257 -146 2 0 43 -24 91 -53 48 -29 153 -90 233 -136 80 -45 152 -87
160 -92 87 -53 174 -99 202 -107 48 -13 87 1 217 77 64 37 195 113 291 168 96
56 191 110 210 122 19 11 60 34 90 51 30 17 71 40 90 51 19 12 188 109 375
216 187 108 363 209 390 226 28 16 70 41 95 55 25 14 131 74 235 135 105 60
205 117 223 128 l32 18 0 -45 c0 -34 6 -51 24 -69 45 -45 62 -43 315 35 291
89 306 92 349 52 22 -20 32 -39 32 -59 0 -25 -23 -148 -74 -388 -8 -38 -18
-86 -21 -105 -3 -19 -11 -55 -16 -80 -6 -25 -13 -54 -15 -65 -3 -11 -9 -42
-14 -70 -16 -80 -17 -86 -35 -170 -19 -91 -22 -106 -32 -155 -4 -19 -8 -37 -8
-40 -1 -3 -5 -23 -10 -45 -12 -59 -11 -58 -45 -220 -17 -82 -34 -161 -36 -175
-3 -14 -16 -78 -30 -143 -35 -167 -21 -214 70 -224 43 -5 48 -3 81 32 25 26
313 592 1001 1968 531 1063 971 1938 976 1945 6 6 7 12 3 12 -4 0 -3 6 3 12 5
7 73 140 151 295 99 197 141 292 141 316 0 44 -32 85 -73 92 -26 5 -222 -27
-432 -71 -56 -11 -83 -16 -212 -40 -16 -3 -47 -9 -71 -15 -112 -25 -131 -26
-170 -10 -29 12 -51 41 -56 75 -1 10 30 129 69 264 l71 247 44 28 c48 30 422
247 426 247 1 0 35 19 76 43 40 24 93 55 118 69 81 46 232 133 370 212 273
158 297 174 314 210 15 32 16 132 14 1103 -3 1050 -3 1068 -23 1094 -19 26
-65 58 -145 102 -19 11 -91 52 -160 92 -69 40 -140 81 -157 91 -99 57 -746
430 -1048 604 -297 172 -357 203 -397 205 -42 3 -57 -3 -174 -71 -70 -41 -129
-74 -130 -74 -4 0 -125 -71 -154 -90 -8 -6 -22 -13 -30 -17 -8 -4 -69 -38
-135 -76 -248 -144 -451 -261 -485 -280 -19 -10 -75 -43 -125 -72 -115 -67
-363 -211 -528 -305 -82 -47 -139 -87 -155 -109 l-27 -34 0 -1003 0 -1002
-543 -314 c-299 -172 -556 -320 -570 -328 -15 -9 -76 -44 -137 -78 -60 -35
-119 -69 -130 -75 -80 -49 -98 -58 -103 -52 -4 4 -8 865 -8 1913 -1 1049 -2
1919 -3 1934 -2 50 -44 86 -211 180 -19 11 -298 172 -620 357 -713 412 -712
411 -760 438 -22 12 -95 55 -162 94 -150 89 -193 97 -273 51z m355 -447 c113
-65 219 -126 235 -135 17 -9 53 -30 80 -47 28 -16 57 -32 65 -36 8 -4 30 -16
49 -28 19 -11 98 -57 175 -101 78 -45 189 -109 249 -144 59 -35 109 -64 111
-64 4 0 190 -109 235 -137 l25 -16 -32 -16 c-26 -13 -248 -141 -431 -247 -20
-12 -157 -91 -306 -176 -148 -86 -284 -164 -302 -174 -109 -64 -334 -193 -372
-214 l-45 -26 -334 193 c-184 106 -337 193 -340 193 -3 0 -13 6 -21 14 -9 7
-36 24 -61 38 -25 13 -56 31 -70 40 -14 9 -52 31 -86 49 -168 93 -564 324
-564 329 0 4 28 22 63 42 34 19 94 54 134 76 39 23 87 50 105 61 18 10 74 42
123 71 50 29 106 61 125 72 98 56 663 382 785 453 l140 82 30 -17 c17 -10 122
-71 235 -135z m5296 -973 c104 -60 279 -161 389 -224 110 -64 216 -125 235
-136 19 -10 76 -43 125 -72 50 -29 108 -62 130 -75 22 -12 96 -55 165 -95 69
-40 149 -86 177 -102 29 -16 55 -34 58 -38 3 -5 -21 -23 -52 -41 -32 -17 -94
-53 -138 -79 -44 -26 -100 -59 -125 -73 -51 -28 -162 -92 -395 -227 -88 -51
-176 -101 -195 -112 -19 -11 -138 -80 -265 -153 -126 -73 -247 -141 -268 -153
l-38 -20 -372 215 c-205 118 -390 225 -412 238 -22 12 -114 65 -205 117 -205
119 -219 127 -369 212 -66 39 -118 73 -114 77 7 6 702 409 823 477 25 13 72
40 105 60 33 19 74 42 90 52 56 32 370 213 410 236 22 13 43 24 46 24 4 0 92
-49 195 -108z m-7138 -25 c20 -13 57 -35 82 -49 25 -14 117 -67 205 -118 88
-51 176 -102 195 -112 34 -19 370 -213 760 -439 l185 -107 1 -2011 c1 -1106 4
-2021 8 -2034 5 -22 57 -87 69 -87 4 0 36 -18 72 -40 36 -22 67 -40 69 -40 1
0 56 -31 122 -68 65 -37 126 -71 134 -75 8 -4 29 -15 45 -25 17 -10 50 -30 75
-44 25 -14 61 -34 80 -45 211 -120 388 -220 400 -226 8 -4 31 -17 50 -28 19
-12 125 -72 235 -134 263 -148 258 -146 345 -195 41 -24 77 -45 80 -47 3 -3 5
-389 5 -858 l0 -854 -50 28 c-27 15 -66 37 -85 48 -19 11 -95 55 -169 97 -74
43 -222 128 -330 191 -108 62 -212 122 -231 133 -19 10 -75 43 -125 72 -49 29
-108 62 -130 75 -22 12 -276 159 -565 325 -289 167 -538 311 -555 320 -16 10
-59 35 -95 55 -36 21 -78 45 -95 54 -25 14 -110 63 -175 101 -14 9 -111 64
-175 101 -16 9 -113 65 -215 124 -102 59 -206 119 -232 134 l-48 26 0 2888 c0
1955 3 2887 10 2887 6 0 27 -11 48 -23z m5338 -996 c5 -5 68 -43 139 -84 206
-118 863 -496 898 -518 18 -10 39 -22 47 -26 8 -4 59 -33 113 -65 55 -32 100
-58 101 -58 2 0 38 -21 82 -47 l79 -48 -1 -283 c-1 -156 -4 -285 -5 -287 -5
-4 -198 -44 -349 -71 -14 -2 -36 -7 -50 -10 -14 -3 -36 -8 -50 -10 -51 -9
-289 -56 -404 -80 -66 -14 -135 -27 -155 -30 -20 -3 -76 -14 -126 -24 -118
-24 -253 -51 -287 -57 -16 -2 -36 2 -46 9 -17 12 -18 59 -17 855 0 582 3 843
11 843 5 0 14 -4 20 -9z m-381 -2153 c-3 -57 -8 -128 -10 -158 -2 -30 -6 -100
-9 -155 -4 -55 -9 -136 -11 -180 -6 -94 -13 -203 -20 -335 -2 -52 -7 -129 -10
-170 -2 -41 -7 -118 -10 -170 -3 -52 -7 -126 -9 -165 -12 -183 -18 -291 -18
-305 -1 -22 -15 -36 -56 -58 -20 -10 -323 -182 -672 -382 -349 -200 -648 -371
-665 -380 -16 -10 -46 -27 -65 -38 l-36 -21 -54 32 c-30 19 -80 47 -110 64
-30 16 -71 39 -90 50 -83 47 -639 363 -684 388 -28 15 -127 71 -220 125 -94
53 -191 108 -216 122 -25 14 -59 34 -76 44 l-32 18 442 254 c242 140 563 324
711 409 149 85 281 162 295 171 14 9 27 17 30 17 3 0 16 8 30 17 20 12 606
351 725 418 17 9 118 68 225 130 107 62 213 123 235 135 250 143 362 208 370
216 5 5 10 9 12 9 2 0 1 -46 -2 -102z"/>
</g>
</svg>
